<svg id="Layer_2" data-name="Layer 2" xmlns="http://www.w3.org/2000/svg" xmlns:xlink="http://www.w3.org/1999/xlink" viewBox="0 0 400 300" width="406" height="306" class="illustration"><defs><linearGradient id="linear-gradient" x1="104.23" y1="195.79" x2="182.05" y2="143.59" gradientUnits="userSpaceOnUse"><stop offset="0" stop-color="#8555f6"></stop><stop offset="1" stop-color="#3e38a5"></stop></linearGradient><linearGradient id="linear-gradient-2" x1="197.9" y1="268.55" x2="243.17" y2="238.18" xlink:href="#linear-gradient"></linearGradient></defs><title>PP</title><path d="M194.28,289.28,14.56,183.06c-5.72-3.21-10.63-8.49-5.05-11.94l180.37-104c2.71-1.68,6.82-2.78,9.57-1.18L388.11,175.48c5.72,3.32,6.75,12.6,1,15.93L218,289.11A23.9,23.9,0,0,1,194.28,289.28Z" fill="#8555f6"></path><path d="M98.54,222.23c.8.48,44.39-25.53,44.35-24.78L219.1,149l-20.86-9.45L56.65,197.45C61.92,199.55,93.66,219.31,98.54,222.23Z" fill="url(#linear-gradient)"></path><path d="M126.67,27.36c-12.5,7.41-43.44,25.72-52.7,31.1A5.17,5.17,0,0,0,71.4,63V190c-.19,2.59,2.74,5,5.13,3.63l52-29.62c2.09-1.2,3.43-2.89,3.43-5.3V30.39A3.52,3.52,0,0,0,126.67,27.36Z" fill="#68e1fd"></path><g opacity="0.46"><path d="M126.67,27.36c-12.5,7.41-43.44,25.72-52.7,31.1A5.17,5.17,0,0,0,71.4,63V190c-.19,2.59,2.74,5,5.13,3.63l52-29.62c2.09-1.2,3.43-2.89,3.43-5.3V30.39A3.52,3.52,0,0,0,126.67,27.36Z" fill="#606060"></path></g><ellipse cx="105.38" cy="84.12" rx="25.98" ry="17.48" transform="translate(-5.36 161.06) rotate(-73.39)" fill="#fff"></ellipse><ellipse cx="106.58" cy="78.46" rx="11.45" ry="7.36" transform="translate(6.85 165.47) rotate(-77.46)" fill="#124577"></ellipse><path d="M93.1,106.23s3.33-10.93,13.48-14.7c10.49-3.89,12.76,3.06,12.76,3.06s-2.12,10.63-12.76,14.6S93.1,106.23,93.1,106.23Z" fill="#124577"></path><path d="M173.25,23c-12.5,7.41-43.44,25.72-52.7,31.1A5.17,5.17,0,0,0,118,58.61v127c-.19,2.59,2.74,5,5.13,3.63l52-29.62c2.09-1.2,3.43-2.89,3.43-5.3V26A3.52,3.52,0,0,0,173.25,23Z" fill="#68e1fd"></path><g opacity="0.25"><path d="M173.25,23c-12.5,7.41-43.44,25.72-52.7,31.1A5.17,5.17,0,0,0,118,58.61v127c-.19,2.59,2.74,5,5.13,3.63l52-29.62c2.09-1.2,3.43-2.89,3.43-5.3V26A3.52,3.52,0,0,0,173.25,23Z" fill="#606060"></path></g><ellipse cx="153.25" cy="74.14" rx="25.98" ry="17.48" transform="translate(38.4 199.8) rotate(-73.39)" fill="#fff"></ellipse><ellipse cx="154.46" cy="68.48" rx="11.45" ry="7.36" transform="translate(54.08 204.38) rotate(-77.46)" fill="#124577"></ellipse><path d="M141,96.24s3.33-10.93,13.48-14.7c10.49-3.89,12.76,3.06,12.76,3.06s-2.12,10.63-12.76,14.6S141,96.24,141,96.24Z" fill="#124577"></path><path d="M215.13,13.33c-12.5,7.41-43.44,25.72-52.7,31.1a5.17,5.17,0,0,0-2.57,4.51V176c-.19,2.59,2.74,5,5.13,3.63L217,150c2.09-1.2,3.43-2.89,3.43-5.3V16.36A3.52,3.52,0,0,0,215.13,13.33Z" fill="#68e1fd"></path><path d="M187.74,280.92a2.15,2.15,0,0,1,1.08,2l73.55-45.1L244.17,225l-71.52,48.11A106.42,106.42,0,0,1,187.74,280.92Z" fill="url(#linear-gradient-2)"></path><path d="M232.59,229.6c0,.24-5,11.7-6.16,12.42s-4.61-1.53-5.8-.26-2.72,4-.09,5.09S231,249,232.44,248.41a24.2,24.2,0,0,0,3.87-2.62s.74-6.14,1.56-5.3.52,7.47,1.11,7.66a6.44,6.44,0,0,0,2.29-.33l-.75-19.37" fill="#ff6161"></path><path d="M254.35,219.3c0,.24-5.44,11.52-6.6,12.19S243.2,229.8,242,231s-2.86,3.86-.27,5.08,10.38,2.56,11.83,2a24.2,24.2,0,0,0,4-2.48s1-6.11,1.74-5.24.26,7.48.84,7.69a6.44,6.44,0,0,0,2.3-.25l-.06-19.39" fill="#ff6161"></path><ellipse cx="195.24" cy="69.35" rx="25.98" ry="17.48" transform="translate(72.98 236.62) rotate(-73.39)" fill="#fff"></ellipse><ellipse cx="196.45" cy="63.68" rx="11.45" ry="7.36" transform="translate(91.63 241.62) rotate(-77.46)" fill="#124577"></ellipse><path d="M183,91.45s3.33-10.93,13.48-14.7c10.49-3.89,12.76,3.06,12.76,3.06s-2.12,10.63-12.76,14.6S183,91.45,183,91.45Z" fill="#124577"></path><path d="M169.16,117.65V126a2.71,2.71,0,0,0,3.78,2.49L213.42,111a2.71,2.71,0,0,0,1.64-2.48l0-8a2.71,2.71,0,0,0-3.77-2.5l-40.49,17.13A2.71,2.71,0,0,0,169.16,117.65Z" fill="#fff"></path><path d="M169.22,137.94v8.33a2.71,2.71,0,0,0,3.78,2.49l40.47-17.43a2.71,2.71,0,0,0,1.64-2.48l0-8a2.71,2.71,0,0,0-3.77-2.5l-40.49,17.13A2.71,2.71,0,0,0,169.22,137.94Z" fill="#fff"></path><line x1="171.24" y1="118.09" x2="212.43" y2="101.55" fill="#fff" stroke="#f15a24" stroke-miterlimit="10"></line><line x1="171.58" y1="121.52" x2="212.77" y2="104.98" fill="#fff" stroke="#f15a24" stroke-miterlimit="10"></line><path d="M235.21,130.1s-16,82-14.69,101.09c0,0,3.18,12.7,30.7,8.47,0,0,2.38-9.53,1.32-25.67s-4-83.89-4-83.89Z" fill="#68e1fd"></path><path d="M238.11,227.06l4.15-97.89,16.56-1.54s7.21,25.23,5.63,37.4,1.85,28.32,2.65,36.78c.71,7.6,1,20.73-1.63,26.6C256.58,231,247,230.1,238.11,227.06Z" fill="#68e1fd"></path><path d="M252.38,235a163.69,163.69,0,0,0,2.78-18.59,66.16,66.16,0,0,0,.07-9.17,89.3,89.3,0,0,0-1.34-9.38,68,68,0,0,1-.76-16.84c.43-5.77,1.31-11.5,1.86-17.26.62-6.49.79-13.06-.63-19.46-.18-.83,1.09-1.18,1.28-.35,2.56,11.5.09,23.15-1,34.67a69.17,69.17,0,0,0,.34,17.89c.48,2.89,1.07,5.77,1.38,8.69a61,61,0,0,1,.22,9.42,152.31,152.31,0,0,1-2.93,20.72C253.49,236.2,252.22,235.85,252.38,235Z" fill="#fff"></path><polyline points="217.28 110.63 222.9 108.24 218.03 78.48 201.95 86 203.84 100 206.18 114.36 217.28 110.63 215.54 108.39" fill="#124577"></polyline><path d="M246.05,87.36c-1.56.57-8.37.57-10.55,6.89a142.78,142.78,0,0,0-3.89,14.34l-16.28-9.24s-1,14.34,1,18,11.42,11.67,19.2,7c0,0-.73,5.59,0,7.29s18.63,3.76,22.76-1.58,1.3-30.74,1.3-30.74" fill="#ff6161"></path><path d="M215.6,106.54c.26-2.05.34-4.12.54-6.18a10.36,10.36,0,0,1-1.53-1.47c-.56-.6-1.1-1.22-1.62-1.85-.34-.68-.68-1.36-1-2l-.41-.84c-.51-1.06-1-2.74-2.19-3.22a1.58,1.58,0,0,0-2.18,1.23c-.2,1.85,2.94,5.8-.78,5.69a13.27,13.27,0,0,0-2.09.06c-1.42.19-2.72.88-2.2,2.51a2.51,2.51,0,0,0,.32.65,1.9,1.9,0,0,0-1.14,2.54,2.11,2.11,0,0,0,1.21,1.21,1.36,1.36,0,0,0-.06,1.73,2.07,2.07,0,0,0,1.31.81,1.71,1.71,0,0,0,.09.83c.47,1.26,2.13,1.71,3.3,1.91a38.67,38.67,0,0,0,7.92.21C215.22,109.07,215.44,107.81,215.6,106.54Z" fill="#f7931e"></path><path d="M241.72,107.37a34.34,34.34,0,0,1-1.51,9.67,11.59,11.59,0,0,1-5.21,6.87c-.51.31,0,1.11.47.8a12.2,12.2,0,0,0,5.4-6.72,34,34,0,0,0,1.77-10.62A.46.46,0,0,0,241.72,107.37Z" fill="#124577" opacity="0.7"></path><path d="M254,85.71c-1.78-.15-34.67-21.46-35.68-20.56s-4.71,12.11.15,16.12,34.12,20.28,34.12,20.28" fill="#f25555"></path><path d="M203.68,66.25c-1.11,1.9-.29,3.92.89,5.82a.74.74,0,0,1,.47,0,34.82,34.82,0,0,0,4.42,1.08,25.22,25.22,0,0,0,3.57.48,9.17,9.17,0,0,1,3.54.92,48.22,48.22,0,0,1,.45-6.17c-4.72-2.27-8.6-3.75-12.87-6.78-.46-.33-1.63-1.48-2-1.3a1,1,0,0,0-.91,1.27c.28,1.84,2.17,2.84,3.63,3.77C204.89,65.42,203.61,66.21,203.68,66.25Z" fill="#f7931e"></path><path d="M204.73,67.61c.28-.43-.42-.8-.7-.37a5.42,5.42,0,0,0-.56,1.14,4.2,4.2,0,0,0-.36,1.74,4,4,0,0,0,.06.41s0,0,0,0a.41.41,0,0,0,0,.17,1.05,1.05,0,0,0,.46.69c.49.24.86-.29,1-.66A4,4,0,0,0,205,69c0-.44,0-1-.35-1.29Z" fill="#f7931e"></path><path d="M215.78,73.68a7.26,7.26,0,0,0-3.71-.92c-1.76.06-3.49.54-4.7-1.16-.73-1-.67-2.21-1.67-3.07A8.66,8.66,0,0,0,205,68l-.49-.32a1.12,1.12,0,0,1-.64-.64.85.85,0,0,1,.84-1.06,2.37,2.37,0,0,1,1,.33l.08,0c.57.19,1.13.42,1.69.66s.84-.5.37-.7c-1.11-.48-3.55-1.85-4.55-.52a1.25,1.25,0,0,0-.25,1.25h0a13.94,13.94,0,0,0-.48,2.29A2.92,2.92,0,0,0,202.6,71a1.61,1.61,0,0,0,1.69.85,1.85,1.85,0,0,0,.19.48,1.89,1.89,0,0,0,2.46.49.3.3,0,0,0,.19-.33,4.07,4.07,0,0,0,1.46,1,6,6,0,0,0,2.86.12,6.71,6.71,0,0,1,4,.78A.4.4,0,0,0,215.78,73.68Zm-11.59-2.62-.08.06c-.3.28-.83-.65-.87-.79a3.13,3.13,0,0,1,.12-1.2c.06-.42.15-.83.25-1.23a10,10,0,0,0,.94.74v0A12.39,12.39,0,0,0,204.19,71.06Zm2.32,1.13c-1.06.49-1.49-.4-1.46-1.33a12,12,0,0,1,.2-1.68l.18.18c.71.81.75,2,1.38,2.82A.41.41,0,0,0,206.51,72.19Z" fill="#42210b"></path><path d="M236.57,67.24c-1,.64-1,16.73,3.6,18.72,6,2.59,10.78-4.48,11.34-8.27S248.37,59.77,236.57,67.24Z" fill="#f7931e"></path><path d="M268.09,93.16A7,7,0,0,1,266,91a9.57,9.57,0,0,1-.38-3.29c-.15-2.72-.86-5.6-3.37-7.09-1.6-.95-3.87-.12-5.2-1.58-1.51-1.65-1-4.09-1.22-6.11-1.08-10.52-16.56-12.42-21.54-3.85a6.18,6.18,0,0,0,1.82,8.29,6.1,6.1,0,0,0,2.46,1c1.28.2,2.54.17,3.09,1.56.82,2.07-.69,4.22-1.44,6.07-1.16,2.87-1.53,7,1.27,9.08,1.32,1,3,1.19,4.52,1.67a3.56,3.56,0,0,1,1.77,1c.75.94.27,2.24.12,3.3a5.19,5.19,0,0,0,0,1.7,3.58,3.58,0,0,0,.85,3c1.68,2,4.77,2.11,7.21,2a22.52,22.52,0,0,0,8.21-2c2.28-1,5.09-2.63,6.26-4.94C271.83,97.9,270.26,95,268.09,93.16Z" fill="#42210b"></path></svg>